<svg width="75" height="51" viewBox="0 0 75 51" fill="none" xmlns="http://www.w3.org/2000/svg">
<path d="M2.71508 20.3708H1.99165C0.891577 20.3708 0 21.3888 0 22.644C0 23.8992 0.891577 24.9171 1.99165 24.9171H2.71508C3.81459 24.9171 4.70677 23.8992 4.70677 22.644C4.70677 21.3888 3.81487 20.3708 2.71508 20.3708Z" fill="#111111"/>
<path d="M19.278 24.9171C20.3778 24.9171 21.2699 23.8992 21.2699 22.644C21.2699 21.3888 20.3778 20.3708 19.278 20.3708H8.22505C7.12554 20.3708 6.2334 21.3888 6.2334 22.644C6.2334 23.8992 7.12554 24.9171 8.22505 24.9171H19.278Z" fill="#111111"/>
<path d="M9.45356 16.4788H10.1688C11.2691 16.4788 12.1604 15.4609 12.1604 14.206C12.1604 12.9502 11.2691 11.9326 10.1688 11.9326H9.45356C8.35349 11.9326 7.46191 12.9505 7.46191 14.206C7.46191 15.4609 8.35349 16.4788 9.45356 16.4788Z" fill="#111111"/>
<path d="M21.4565 11.9326H15.6795C14.5791 11.9326 13.6875 12.9505 13.6875 14.206C13.6875 15.4613 14.5791 16.4788 15.6795 16.4788H21.4565C22.5565 16.4788 23.4481 15.4609 23.4481 14.206C23.4481 12.9502 22.5565 11.9326 21.4565 11.9326Z" fill="#111111"/>
<path d="M10.1776 28.8098H9.45356C8.35349 28.8098 7.46191 29.8277 7.46191 31.0832C7.46191 32.3384 8.35349 33.356 9.45356 33.356H10.1776C11.2777 33.356 12.1692 32.3381 12.1692 31.0832C12.1692 29.8277 11.2777 28.8098 10.1776 28.8098Z" fill="#111111"/>
<path d="M21.4564 28.8098H15.688C14.5879 28.8098 13.6963 29.8277 13.6963 31.0832C13.6963 32.3384 14.5879 33.356 15.688 33.356H21.4564C22.5565 33.356 23.4481 32.3381 23.4481 31.0832C23.4481 29.8277 22.5565 28.8098 21.4564 28.8098Z" fill="#111111"/>
<path d="M74.4787 24.6054L64.9195 12.6726C64.5426 12.2013 64.0086 11.9328 63.4493 11.9328H52.1475V2.2731C52.1475 1.01758 51.2559 0 50.1559 0H13.8598C12.7597 0 11.8682 1.0179 11.8682 2.2731C11.8682 3.52831 12.7597 4.54621 13.8598 4.54621H48.1639V40.7435H30.9866C30.1262 37.445 27.4469 35.0325 24.2816 35.0325C21.1164 35.0325 18.4365 37.445 17.577 40.7435H13.8598C12.7597 40.7435 11.8682 41.761 11.8682 43.0163C11.8682 44.2721 12.7597 45.2894 13.8598 45.2894H17.577C18.4365 48.5872 21.1164 51 24.2816 51C27.4469 51 30.1262 48.5872 30.9866 45.2894H50.1556H54.8768C55.7372 48.5872 58.417 51 61.5818 51C64.7476 51 67.4269 48.5872 68.287 45.2894H73.0085C74.1086 45.2894 75.0002 44.2718 75.0002 43.0163V26.1391C75.0007 25.5721 74.8141 25.0246 74.4787 24.6054ZM24.2816 46.4544C22.6209 46.4544 21.2697 44.9123 21.2697 43.0166C21.2697 41.1211 22.6209 39.5787 24.2816 39.5787C25.9424 39.5787 27.2936 41.1214 27.2936 43.0166C27.2938 44.9123 25.9424 46.4544 24.2816 46.4544ZM61.5821 46.4544C59.9213 46.4544 58.5701 44.9123 58.5701 43.0166C58.5701 41.1211 59.9216 39.5787 61.5821 39.5787C63.2434 39.5787 64.5945 41.1214 64.5945 43.0166C64.5948 44.9123 63.2434 46.4544 61.5821 46.4544ZM68.2875 40.7438C67.4275 37.4453 64.7482 35.0328 61.5823 35.0328C58.4173 35.0328 55.7377 37.4453 54.8774 40.7438H52.1478V16.4794H62.5722L68.4895 23.8663H57.2079C56.1084 23.8663 55.2168 24.8842 55.2168 26.1394C55.2168 27.3953 56.1084 28.4125 57.2079 28.4125H71.0174V40.7435H68.2875V40.7438Z" fill="#111111"/>
</svg>
