<svg width="246" height="306" xmlns="http://www.w3.org/2000/svg" xmlns:xlink="http://www.w3.org/1999/xlink" overflow="hidden"><defs><clipPath id="clip0"><path d="M435 129 681 129 681 435 435 435Z" fill-rule="evenodd" clip-rule="evenodd"/></clipPath><clipPath id="clip1"><path d="M435 130 680 130 680 434 435 434Z" fill-rule="evenodd" clip-rule="evenodd"/></clipPath><clipPath id="clip2"><path d="M435 130 680 130 680 434 435 434Z" fill-rule="evenodd" clip-rule="evenodd"/></clipPath></defs><g clip-path="url(#clip0)" transform="translate(-435 -129)"><g clip-path="url(#clip1)"><g clip-path="url(#clip2)"><path d="M359.083 478.778 359.083 239.389" stroke="#FFFFFF" stroke-width="59.8472" stroke-linecap="round" stroke-linejoin="round" fill="none" transform="matrix(1.00205 0 -0 1 197.837 -77.3132)"/><path d="M269.313 389.007 356.48 476.174 356.48 476.174C357.916 477.611 360.25 477.611 361.687 476.174L361.687 476.174 448.854 389.007" stroke="#FFFFFF" stroke-width="59.8472" stroke-linecap="round" stroke-linejoin="round" fill="none" transform="matrix(1.00205 0 -0 1 197.837 -77.3132)"/></g></g></g></svg>