<svg width="506" height="507" xmlns="http://www.w3.org/2000/svg" xmlns:xlink="http://www.w3.org/1999/xlink" overflow="hidden"><defs><clipPath id="clip0"><path d="M353 125 859 125 859 632 353 632Z" fill-rule="evenodd" clip-rule="evenodd"/></clipPath><clipPath id="clip1"><path d="M354 125 858 125 858 631 354 631Z" fill-rule="evenodd" clip-rule="evenodd"/></clipPath><clipPath id="clip2"><path d="M354 125 858 125 858 632 354 632Z" fill-rule="evenodd" clip-rule="evenodd"/></clipPath><clipPath id="clip3"><path d="M354 18 1073 18 1073 739 354 739Z" fill-rule="evenodd" clip-rule="evenodd"/></clipPath></defs><g clip-path="url(#clip0)" transform="translate(-353 -125)"><g clip-path="url(#clip1)"><g clip-path="url(#clip2)"><g clip-path="url(#clip3)"><path d="M0 233.078C0 254.15 7.72808 277.312 17.5454 301.889 27.3628 326.466 40.0108 349.628 49.8506 367.174 76.5394 413.52 110.934 459.147 150.248 497.046 189.563 534.945 235.909 566.553 287.848 585.514 318.042 597.443 348.235 610.788 381.933 610.788 398.782 610.788 422.663 604.475 444.409 595.331 465.482 586.211 484.42 572.17 491.452 555.321 494.26 549.008 497.765 540.583 499.876 530.744 501.988 521.623 503.381 512.479 503.381 506.167 503.381 502.662 503.381 499.135 502.684 498.439 500.573 494.215 495.653 490.71 490.036 487.206 477.388 480.893 475.299 478.781 456.338 467.549 436.681 456.316 416.328 443.668 398.76 434.547 390.335 429.627 384.719 427.515 382.607 427.515 371.375 427.515 357.334 442.972 345.405 459.821 332.757 476.67 318.716 492.126 308.898 492.126 303.979 492.126 299.059 490.014 293.442 486.509 287.826 483.005 282.21 480.197 278.705 478.085 216.925 442.972 175.499 401.568 140.408 340.485 136.185 333.453 126.368 318.716 126.368 310.988 126.368 301.867 139.016 291.331 151.641 280.098 163.57 269.562 176.218 256.936 176.218 241.48 176.218 239.368 174.803 233.055 171.995 223.935 165.682 205.67 157.257 184.62 150.226 164.267 146.721 154.427 143.913 147.418 143.194 143.913 141.779 141.801 141.082 138.993 140.386 135.488 139.689 131.984 138.274 129.176 137.578 126.368 135.466 120.055 131.961 115.135 128.457 112.327 124.952 110.911 116.528 108.822 108.103 108.103 99.6787 108.103 89.8389 107.407 85.6379 107.407 83.5261 107.407 80.718 107.407 77.9098 108.103L68.7889 108.103C46.3235 117.943 30.171 137.6 18.2419 160.762 7.00919 183.924-0.0224653 209.916-0.0224653 233.078Z" transform="matrix(1 0 -0 1.00135 354 18.2945)"/></g></g></g></g></svg>