<svg width="440" height="440" xmlns="http://www.w3.org/2000/svg" xmlns:xlink="http://www.w3.org/1999/xlink" overflow="hidden"><defs><clipPath id="clip0"><path d="M420 140 860 140 860 580 420 580Z" fill-rule="evenodd" clip-rule="evenodd"/></clipPath><clipPath id="clip1"><path d="M421 141 859 141 859 579 421 579Z" fill-rule="evenodd" clip-rule="evenodd"/></clipPath><clipPath id="clip2"><path d="M421 141 859 141 859 579 421 579Z" fill-rule="evenodd" clip-rule="evenodd"/></clipPath></defs><g clip-path="url(#clip0)" transform="translate(-420 -140)"><g clip-path="url(#clip1)"><g clip-path="url(#clip2)"><path d="M724.678 212.031 788.689 276.041 788.689 276.041C803.073 289.707 803.073 312.722 788.689 326.387L788.689 326.387 621.829 492.528 621.829 263.815 673.613 212.031C687.278 197.646 711.013 197.646 724.678 212.031ZM855.577 450.094 855.577 539.997C855.577 560.135 839.754 575.958 819.615 575.958L595.218 575.958 757.043 414.132 819.615 414.132C839.754 414.132 855.577 430.674 855.577 450.094ZM424.042 495.405 424.042 180.385C424.042 160.246 439.865 144.424 460.004 144.424L549.906 144.424C570.045 144.424 585.868 160.246 585.868 180.385L585.868 495.405C585.868 539.997 549.906 575.958 505.315 575.958 460.723 575.958 424.042 539.997 424.042 495.405ZM504.595 531.366C524.734 531.366 540.557 515.543 540.557 495.405 540.557 475.266 524.734 459.443 504.595 459.443 484.457 459.443 468.634 475.266 468.634 495.405 468.634 515.543 485.176 531.366 504.595 531.366Z"/></g></g></g></svg>