<svg width="607" height="603" xmlns="http://www.w3.org/2000/svg" xmlns:xlink="http://www.w3.org/1999/xlink" overflow="hidden"><defs><clipPath id="clip0"><path d="M171-314 778-314 778 289 171 289Z" fill-rule="evenodd" clip-rule="evenodd"/></clipPath><clipPath id="clip1"><path d="M172-314 777-314 777 288 172 288Z" fill-rule="evenodd" clip-rule="evenodd"/></clipPath><clipPath id="clip2"><path d="M172-314 777-314 777 288 172 288Z" fill-rule="evenodd" clip-rule="evenodd"/></clipPath></defs><g clip-path="url(#clip0)" transform="translate(-171 314)"><g clip-path="url(#clip1)"><g clip-path="url(#clip2)"><path d="M359.798 61.165C194.89 61.165 59.9663 195.789 59.9663 361.597 59.9663 511.513 169.705 635.943 313.024 658.43L313.024 448.548 236.867 448.548 236.867 361.597 313.024 361.597 313.024 295.333C313.024 220.076 357.699 178.699 426.36 178.699 459.042 178.699 493.223 184.396 493.223 184.396L493.223 258.454 455.444 258.454C418.265 258.454 406.572 281.541 406.572 305.228L406.572 361.597 489.925 361.597 476.432 448.548 406.572 448.548 406.572 658.43C477.224 647.27 541.562 611.221 587.967 556.787 634.372 502.356 659.791 433.125 659.629 361.597 659.629 195.789 524.705 61.165 359.798 61.165Z" fill="#FFFFFF" transform="matrix(1 0 -0 1.00041 114.699 -372.808)"/></g></g></g></svg>