<svg width="435" height="520" xmlns="http://www.w3.org/2000/svg" xmlns:xlink="http://www.w3.org/1999/xlink" overflow="hidden"><defs><clipPath id="clip0"><path d="M389 121 824 121 824 641 389 641Z" fill-rule="evenodd" clip-rule="evenodd"/></clipPath><clipPath id="clip1"><path d="M390 121 823 121 823 640 390 640Z" fill-rule="evenodd" clip-rule="evenodd"/></clipPath><clipPath id="clip2"><path d="M390 121 824 121 824 640 390 640Z" fill-rule="evenodd" clip-rule="evenodd"/></clipPath><clipPath id="clip3"><path d="M347 121 866 121 866 640 347 640Z" fill-rule="evenodd" clip-rule="evenodd"/></clipPath></defs><g clip-path="url(#clip0)" transform="translate(-389 -121)"><g clip-path="url(#clip1)"><g clip-path="url(#clip2)"><g clip-path="url(#clip3)"><path d="M245.894 513.77 245.84 513.729 245.706 513.623 245.233 513.252C244.827 512.93 244.242 512.468 243.488 511.865 241.985 510.662 239.81 508.904 237.063 506.637 231.571 502.103 223.777 495.521 214.445 487.225 195.811 470.663 170.903 447.146 145.924 419.391 121.008 391.706 95.6082 359.352 76.3381 325.095 57.1805 291.036 43.1939 253.533 43.1939 215.97 43.1939 158.691 65.9478 103.758 106.45 63.256 146.952 22.7539 201.885 0 259.164 0 316.443 0 371.375 22.7539 411.878 63.256 452.379 103.758 475.133 158.691 475.133 215.97 475.133 253.533 461.147 291.036 441.988 325.095 422.719 359.352 397.319 391.706 372.403 419.391 347.424 447.146 322.516 470.663 303.882 487.225 294.55 495.521 286.756 502.103 281.264 506.637 278.517 508.904 276.342 510.662 274.839 511.865 274.085 512.468 273.5 512.93 273.094 513.252L272.621 513.623 272.487 513.729 272.446 513.759C272.446 513.759 272.422 513.779 259.164 496.73L272.422 513.779C264.623 519.843 253.693 519.837 245.894 513.77ZM259.164 496.73 245.894 513.77C245.894 513.77 245.905 513.779 259.164 496.73ZM323.954 215.97C323.954 251.754 294.948 280.76 259.164 280.76 223.379 280.76 194.373 251.754 194.373 215.97 194.373 180.187 223.379 151.179 259.164 151.179 294.948 151.179 323.954 180.187 323.954 215.97Z" fill-rule="evenodd" transform="matrix(1 0 -0 1.0013 347.549 121)"/></g></g></g></g></svg>