<svg width="426" height="516" xmlns="http://www.w3.org/2000/svg" xmlns:xlink="http://www.w3.org/1999/xlink" overflow="hidden"><defs><clipPath id="clip0"><path d="M427 102 853 102 853 618 427 618Z" fill-rule="evenodd" clip-rule="evenodd"/></clipPath><clipPath id="clip1"><path d="M428 103 852 103 852 617 428 617Z" fill-rule="evenodd" clip-rule="evenodd"/></clipPath><clipPath id="clip2"><path d="M428 102 853 102 853 617 428 617Z" fill-rule="evenodd" clip-rule="evenodd"/></clipPath></defs><g clip-path="url(#clip0)" transform="translate(-427 -102)"><g clip-path="url(#clip1)"><g clip-path="url(#clip2)"><path d="M167.196 137.263C149.662 154.797 149.662 183.018 149.662 239.459L149.662 508.85C149.662 565.29 149.662 593.51 167.196 611.045 184.73 628.579 212.95 628.579 269.391 628.579L448.985 628.579C505.426 628.579 533.646 628.579 551.18 611.045 568.714 593.51 568.714 565.29 568.714 508.85L568.714 239.459C568.714 183.018 568.714 154.797 551.18 137.263 533.646 119.729 505.426 119.729 448.985 119.729L269.391 119.729C212.95 119.729 184.73 119.729 167.196 137.263ZM269.391 239.459C252.86 239.459 239.459 252.86 239.459 269.391 239.459 285.922 252.86 299.323 269.391 299.323L448.985 299.323C465.517 299.323 478.917 285.922 478.917 269.391 478.917 252.86 465.517 239.459 448.985 239.459L269.391 239.459ZM269.391 359.188C252.86 359.188 239.459 372.589 239.459 389.12 239.459 405.652 252.86 419.053 269.391 419.053L448.985 419.053C465.517 419.053 478.917 405.652 478.917 389.12 478.917 372.589 465.517 359.188 448.985 359.188L269.391 359.188ZM269.391 478.917C252.86 478.917 239.459 492.318 239.459 508.85 239.459 525.381 252.86 538.782 269.391 538.782L389.12 538.782C405.652 538.782 419.053 525.381 419.053 508.85 419.053 492.318 405.652 478.917 389.12 478.917L269.391 478.917Z" fill="#FFFFFF" fill-rule="evenodd" transform="matrix(1 0 -0 1.00118 280.963 -14.6361)"/></g></g></g></svg>