<svg width="355" height="356" xmlns="http://www.w3.org/2000/svg" xmlns:xlink="http://www.w3.org/1999/xlink" overflow="hidden"><defs><clipPath id="clip0"><path d="M160 283 515 283 515 639 160 639Z" fill-rule="evenodd" clip-rule="evenodd"/></clipPath><clipPath id="clip1"><path d="M161 284 514 284 514 639 161 639Z" fill-rule="evenodd" clip-rule="evenodd"/></clipPath><clipPath id="clip2"><path d="M161 284 514 284 514 639 161 639Z" fill-rule="evenodd" clip-rule="evenodd"/></clipPath><linearGradient x1="201.009" y1="25.1261" x2="201.009" y2="376.892" gradientUnits="userSpaceOnUse" spreadMethod="pad" id="fill3"><stop offset="0" stop-color="#37BBFE"/><stop offset="1" stop-color="#007DBB"/></linearGradient></defs><g clip-path="url(#clip0)" transform="translate(-160 -283)"><g clip-path="url(#clip1)"><g clip-path="url(#clip2)"><path d="M376.892 201.009C376.892 298.146 298.146 376.892 201.009 376.892 103.872 376.892 25.1261 298.146 25.1261 201.009 25.1261 103.872 103.872 25.1261 201.009 25.1261 298.146 25.1261 376.892 103.872 376.892 201.009Z" fill="url(#fill3)" transform="matrix(1 0 -0 1.00188 136.356 259.983)"/><path d="M288.782 128.254C290.348 118.135 280.727 110.147 271.729 114.098L92.5247 192.778C86.0724 195.611 86.5444 205.385 93.2364 207.515L130.192 219.285C137.246 221.531 144.884 220.369 151.043 216.114L234.364 158.55C236.877 156.813 239.615 160.386 237.468 162.599L177.492 224.434C171.674 230.433 172.829 240.598 179.828 244.986L246.977 287.095C254.509 291.817 264.197 287.074 265.606 277.972L288.782 128.254Z" fill="#FFFFFF" transform="matrix(1 0 -0 1.00188 136.356 259.983)"/></g></g></g></svg>